<svg xmlns="http://www.w3.org/2000/svg" xmlns:xlink="http://www.w3.org/1999/xlink" width="600" zoomAndPan="magnify" viewBox="0 0 450 149.999998" height="200" preserveAspectRatio="xMidYMid meet" version="1.0"><defs><g/><clipPath id="0e49b9f67e"><path d="M 162.472656 45 L 222 45 L 222 104 L 162.472656 104 Z M 162.472656 45 " clip-rule="nonzero"/></clipPath></defs><g fill="#000000" fill-opacity="1"><g transform="translate(7.992191, 97.874995)"><g><path d="M 33.828125 -11.3125 C 35.609375 -10.9375 36.5 -9.554688 36.5 -7.171875 C 36.5 -5.878906 36.191406 -4.863281 35.578125 -4.125 C 34.960938 -3.394531 34.164062 -3.03125 33.1875 -3.03125 C 32.875 -3.03125 32.289062 -3.078125 31.4375 -3.171875 C 30.582031 -3.265625 29.660156 -3.351562 28.671875 -3.4375 C 27.691406 -3.53125 26.742188 -3.625 25.828125 -3.71875 C 24.910156 -3.8125 24.269531 -3.859375 23.90625 -3.859375 C 23.53125 -3.859375 23.1875 -3.859375 22.875 -3.859375 C 22.570312 -3.859375 22.269531 -3.828125 21.96875 -3.765625 C 20.925781 -3.828125 19.710938 -3.960938 18.328125 -4.171875 C 16.953125 -4.390625 15.601562 -4.632812 14.28125 -4.90625 C 12.96875 -5.1875 11.804688 -5.476562 10.796875 -5.78125 C 9.785156 -6.09375 9.191406 -6.375 9.015625 -6.625 C 8.398438 -8.457031 8.09375 -10.90625 8.09375 -13.96875 C 8.09375 -14.457031 8.09375 -14.960938 8.09375 -15.484375 C 8.09375 -16.003906 8.125 -16.539062 8.1875 -17.09375 L 8.734375 -23.625 C 8.796875 -24.113281 8.828125 -24.585938 8.828125 -25.046875 C 8.828125 -25.503906 8.828125 -25.921875 8.828125 -26.296875 C 8.828125 -26.785156 8.828125 -27.195312 8.828125 -27.53125 C 8.828125 -27.863281 8.765625 -28.1875 8.640625 -28.5 C 9.066406 -30.820312 9.367188 -32.765625 9.546875 -34.328125 C 9.734375 -35.890625 9.828125 -37.101562 9.828125 -37.96875 L 9.828125 -38.703125 C 9.828125 -39.554688 10.195312 -42.28125 10.9375 -46.875 C 11.851562 -48.84375 13.265625 -49.828125 15.171875 -49.828125 C 16.328125 -49.828125 17.300781 -49.378906 18.09375 -48.484375 C 18.894531 -47.597656 19.296875 -46.390625 19.296875 -44.859375 C 19.054688 -44.003906 18.828125 -42.929688 18.609375 -41.640625 C 18.398438 -40.347656 18.203125 -38.816406 18.015625 -37.046875 L 18.015625 -36.3125 C 18.015625 -35.757812 17.96875 -34.914062 17.875 -33.78125 C 17.78125 -32.644531 17.671875 -31.476562 17.546875 -30.28125 C 17.429688 -29.09375 17.328125 -28.019531 17.234375 -27.0625 C 17.140625 -26.113281 17.09375 -25.582031 17.09375 -25.46875 C 17.09375 -24.789062 17.125 -24.359375 17.1875 -24.171875 C 16.945312 -21.597656 16.765625 -19.453125 16.640625 -17.734375 C 16.515625 -16.023438 16.453125 -14.707031 16.453125 -13.78125 C 16.453125 -13.175781 16.484375 -12.78125 16.546875 -12.59375 C 19.734375 -12.226562 21.847656 -12.046875 22.890625 -12.046875 C 23.378906 -12.046875 23.882812 -12.0625 24.40625 -12.09375 C 24.925781 -12.125 25.460938 -12.140625 26.015625 -12.140625 C 28.335938 -12.140625 30.941406 -11.863281 33.828125 -11.3125 Z M 33.828125 -11.3125 "/></g></g></g><g fill="#000000" fill-opacity="1"><g transform="translate(49.076043, 97.874995)"><g><path d="M 29.78125 -2.296875 C 28.988281 -1.742188 27.703125 -1.207031 25.921875 -0.6875 C 24.140625 -0.164062 22.300781 0.273438 20.40625 0.640625 L 16.640625 -0.09375 C 16.085938 -0.28125 15.179688 -0.707031 13.921875 -1.375 C 12.671875 -2.050781 11.398438 -3.078125 10.109375 -4.453125 C 8.828125 -5.835938 7.691406 -7.613281 6.703125 -9.78125 C 5.722656 -11.957031 5.234375 -14.609375 5.234375 -17.734375 C 5.234375 -18.835938 5.492188 -20.140625 6.015625 -21.640625 C 6.535156 -23.148438 7.316406 -24.5625 8.359375 -25.875 C 9.398438 -27.195312 10.703125 -28.316406 12.265625 -29.234375 C 13.828125 -30.148438 15.648438 -30.609375 17.734375 -30.609375 C 21.898438 -30.609375 25.671875 -29.257812 29.046875 -26.5625 C 31.984375 -22.519531 33.453125 -18.046875 33.453125 -13.140625 C 33.453125 -9.523438 32.226562 -5.910156 29.78125 -2.296875 Z M 25.28125 -15.34375 C 24.96875 -17.738281 24.210938 -19.625 23.015625 -21 C 21.828125 -22.382812 20.3125 -23.078125 18.46875 -23.078125 C 17.25 -23.078125 16.101562 -22.476562 15.03125 -21.28125 C 13.957031 -20.082031 13.421875 -18.351562 13.421875 -16.09375 C 13.421875 -15.164062 13.539062 -14.195312 13.78125 -13.1875 C 14.03125 -12.175781 14.429688 -11.253906 14.984375 -10.421875 C 15.535156 -9.597656 16.238281 -8.925781 17.09375 -8.40625 C 17.957031 -7.882812 19 -7.625 20.21875 -7.625 C 22.1875 -7.625 23.535156 -8.222656 24.265625 -9.421875 C 25.003906 -10.617188 25.375 -12.101562 25.375 -13.875 C 25.375 -14.125 25.359375 -14.351562 25.328125 -14.5625 C 25.296875 -14.78125 25.28125 -15.039062 25.28125 -15.34375 Z M 25.28125 -15.34375 "/></g></g></g><g fill="#000000" fill-opacity="1"><g transform="translate(87.862139, 97.874995)"><g><path d="M 27.296875 -28.59375 L 22.34375 -28.125 C 22.09375 -28.125 21.816406 -28.09375 21.515625 -28.03125 C 21.203125 -27.96875 20.847656 -27.90625 20.453125 -27.84375 C 20.054688 -27.789062 19.613281 -27.734375 19.125 -27.671875 L 19.859375 -19.296875 C 19.921875 -18.503906 19.992188 -17.523438 20.078125 -16.359375 C 20.171875 -15.191406 20.34375 -13.8125 20.59375 -12.21875 C 20.53125 -11.726562 20.484375 -11.238281 20.453125 -10.75 C 20.421875 -10.257812 20.40625 -9.707031 20.40625 -9.09375 C 20.40625 -8.175781 20.4375 -7.164062 20.5 -6.0625 C 20.5625 -4.957031 20.65625 -3.765625 20.78125 -2.484375 C 19.675781 -0.640625 18.113281 0.28125 16.09375 0.28125 C 14.25 0.28125 12.957031 -0.609375 12.21875 -2.390625 C 12.21875 -2.878906 12.234375 -3.472656 12.265625 -4.171875 C 12.296875 -4.878906 12.3125 -5.664062 12.3125 -6.53125 C 12.3125 -7.382812 12.296875 -8.316406 12.265625 -9.328125 C 12.234375 -10.335938 12.21875 -11.457031 12.21875 -12.6875 L 12.21875 -13.140625 C 12.21875 -14.117188 12.171875 -14.851562 12.078125 -15.34375 C 11.992188 -15.84375 11.890625 -16.472656 11.765625 -17.234375 C 11.640625 -18.003906 11.484375 -19.09375 11.296875 -20.5 C 11.117188 -21.90625 10.9375 -24.050781 10.75 -26.9375 L 7.359375 -26.296875 C 7.171875 -26.296875 7 -26.304688 6.84375 -26.328125 C 6.695312 -26.359375 6.5625 -26.375 6.4375 -26.375 C 6.125 -26.375 5.84375 -26.359375 5.59375 -26.328125 C 5.351562 -26.304688 5.144531 -26.296875 4.96875 -26.296875 C 4.71875 -26.234375 4.503906 -26.203125 4.328125 -26.203125 C 2.359375 -26.691406 1.375 -28.097656 1.375 -30.421875 C 1.375 -31.347656 1.46875 -32.054688 1.65625 -32.546875 C 1.84375 -33.035156 2.238281 -33.398438 2.84375 -33.640625 C 3.457031 -33.890625 4.363281 -34.085938 5.5625 -34.234375 C 6.757812 -34.390625 8.335938 -34.625 10.296875 -34.9375 C 10.234375 -35.976562 10.125 -37.1875 9.96875 -38.5625 C 9.820312 -39.9375 9.75 -41.421875 9.75 -43.015625 C 9.75 -45.472656 10.847656 -48.691406 13.046875 -52.671875 C 13.660156 -52.972656 14.257812 -53.273438 14.84375 -53.578125 C 15.425781 -53.890625 16.128906 -54.179688 16.953125 -54.453125 C 17.785156 -54.734375 18.769531 -55.007812 19.90625 -55.28125 C 21.039062 -55.5625 22.460938 -55.828125 24.171875 -56.078125 L 24.546875 -56.078125 C 25.585938 -56.078125 26.398438 -55.675781 26.984375 -54.875 C 27.566406 -54.082031 27.859375 -53.164062 27.859375 -52.125 C 27.859375 -50.957031 27.597656 -50.082031 27.078125 -49.5 C 26.554688 -48.914062 25.894531 -48.453125 25.09375 -48.109375 C 24.300781 -47.773438 23.425781 -47.5 22.46875 -47.28125 C 21.519531 -47.070312 20.648438 -46.785156 19.859375 -46.421875 C 19.117188 -46.171875 18.671875 -45.707031 18.515625 -45.03125 C 18.367188 -44.363281 18.265625 -43.691406 18.203125 -43.015625 C 18.203125 -42.890625 18.234375 -42.382812 18.296875 -41.5 C 18.359375 -40.613281 18.390625 -39.832031 18.390625 -39.15625 C 18.390625 -38.976562 18.375 -38.8125 18.34375 -38.65625 C 18.3125 -38.5 18.296875 -38.359375 18.296875 -38.234375 C 18.296875 -37.992188 18.3125 -37.671875 18.34375 -37.265625 C 18.375 -36.867188 18.414062 -36.335938 18.46875 -35.671875 L 22.703125 -36.21875 C 23.128906 -36.28125 23.539062 -36.3125 23.9375 -36.3125 C 24.34375 -36.3125 24.695312 -36.3125 25 -36.3125 C 26.53125 -36.3125 27.648438 -36.035156 28.359375 -35.484375 C 29.066406 -34.929688 29.421875 -33.976562 29.421875 -32.625 C 29.421875 -30.488281 28.710938 -29.144531 27.296875 -28.59375 Z M 27.296875 -28.59375 "/></g></g></g><g fill="#000000" fill-opacity="1"><g transform="translate(120.214527, 97.874995)"><g><path d="M 28.953125 -34.65625 C 29.628906 -34.101562 29.96875 -33.09375 29.96875 -31.625 C 29.96875 -28.925781 28.957031 -27.578125 26.9375 -27.578125 L 26.5625 -27.578125 C 25.644531 -27.515625 24.570312 -27.4375 23.34375 -27.34375 C 22.125 -27.25 20.75 -27.113281 19.21875 -26.9375 C 19.09375 -25.957031 18.96875 -24.65625 18.84375 -23.03125 C 18.71875 -21.40625 18.65625 -19.457031 18.65625 -17.1875 C 18.65625 -17 18.671875 -16.8125 18.703125 -16.625 C 18.734375 -16.445312 18.75 -16.238281 18.75 -16 L 18.75 -11.765625 C 18.75 -10.785156 18.914062 -10.003906 19.25 -9.421875 C 19.59375 -8.835938 20.007812 -8.425781 20.5 -8.1875 L 23.078125 -7.359375 C 25.097656 -6.679688 26.109375 -5.453125 26.109375 -3.671875 C 26.109375 -2.628906 25.691406 -1.707031 24.859375 -0.90625 C 24.035156 -0.113281 22.976562 0.28125 21.6875 0.28125 C 21.320312 0.28125 20.691406 0.171875 19.796875 -0.046875 C 18.910156 -0.265625 17.992188 -0.554688 17.046875 -0.921875 C 16.097656 -1.285156 15.207031 -1.742188 14.375 -2.296875 C 13.550781 -2.847656 12.988281 -3.460938 12.6875 -4.140625 C 12.007812 -5.546875 11.457031 -7.03125 11.03125 -8.59375 C 10.601562 -10.15625 10.390625 -11.796875 10.390625 -13.515625 C 10.390625 -15.410156 10.421875 -16.753906 10.484375 -17.546875 C 10.546875 -18.347656 10.601562 -19.054688 10.65625 -19.671875 C 10.71875 -20.285156 10.78125 -21.019531 10.84375 -21.875 C 10.90625 -22.738281 10.9375 -24.148438 10.9375 -26.109375 C 9.769531 -25.984375 8.054688 -25.613281 5.796875 -25 C 4.441406 -25 3.289062 -25.347656 2.34375 -26.046875 C 1.394531 -26.753906 0.921875 -27.691406 0.921875 -28.859375 C 0.921875 -29.722656 1.179688 -30.519531 1.703125 -31.25 C 2.222656 -31.988281 3.3125 -32.632812 4.96875 -33.1875 C 5.519531 -33.363281 6.023438 -33.484375 6.484375 -33.546875 C 6.941406 -33.609375 7.398438 -33.671875 7.859375 -33.734375 C 8.316406 -33.796875 8.820312 -33.84375 9.375 -33.875 C 9.925781 -33.90625 10.597656 -33.984375 11.390625 -34.109375 C 11.453125 -35.640625 11.5625 -37.367188 11.71875 -39.296875 C 11.875 -41.222656 12.148438 -43.015625 12.546875 -44.671875 C 12.941406 -46.328125 13.519531 -47.722656 14.28125 -48.859375 C 15.050781 -49.992188 16.082031 -50.5625 17.375 -50.5625 C 19.582031 -50.5625 20.929688 -49.550781 21.421875 -47.53125 C 21.421875 -47.46875 21.34375 -47.050781 21.1875 -46.28125 C 21.03125 -45.519531 20.859375 -44.675781 20.671875 -43.75 C 20.492188 -42.832031 20.328125 -41.941406 20.171875 -41.078125 C 20.023438 -40.222656 19.953125 -39.675781 19.953125 -39.4375 L 19.671875 -34.9375 C 20.097656 -34.988281 20.492188 -35.03125 20.859375 -35.0625 C 21.234375 -35.09375 21.632812 -35.109375 22.0625 -35.109375 L 22.890625 -35.109375 C 23.316406 -35.109375 23.710938 -35.125 24.078125 -35.15625 C 24.453125 -35.1875 24.789062 -35.203125 25.09375 -35.203125 C 26.9375 -35.203125 28.222656 -35.019531 28.953125 -34.65625 Z M 28.953125 -34.65625 "/></g></g></g><g fill="#000000" fill-opacity="1"><g transform="translate(152.10937, 97.874995)"><g/></g></g><g fill="#000000" fill-opacity="1"><g transform="translate(190.71164, 97.874995)"><g/></g></g><g fill="#000000" fill-opacity="1"><g transform="translate(229.324213, 97.874995)"><g><path d="M 47.890625 -9.46875 C 47.890625 -9.101562 47.921875 -8.644531 47.984375 -8.09375 C 48.046875 -7.539062 48.109375 -6.957031 48.171875 -6.34375 C 48.234375 -5.726562 48.289062 -5.160156 48.34375 -4.640625 C 48.40625 -4.117188 48.4375 -3.738281 48.4375 -3.5 C 48.4375 -0.863281 47.242188 0.453125 44.859375 0.453125 C 42.898438 0.453125 41.519531 -0.1875 40.71875 -1.46875 L 39.890625 -8.09375 L 39.890625 -8.828125 C 39.890625 -9.253906 39.859375 -9.800781 39.796875 -10.46875 C 39.734375 -11.144531 39.65625 -11.820312 39.5625 -12.5 C 39.476562 -13.175781 39.40625 -13.789062 39.34375 -14.34375 C 39.28125 -14.894531 39.25 -15.289062 39.25 -15.53125 C 39.3125 -15.957031 39.359375 -16.367188 39.390625 -16.765625 C 39.421875 -17.171875 39.4375 -17.585938 39.4375 -18.015625 C 39.4375 -18.691406 39.40625 -19.320312 39.34375 -19.90625 C 39.28125 -20.488281 39.1875 -21.082031 39.0625 -21.6875 C 38.570312 -21.570312 37.53125 -21.40625 35.9375 -21.1875 C 34.34375 -20.96875 32.382812 -20.859375 30.0625 -20.859375 C 29.019531 -20.859375 28.050781 -20.890625 27.15625 -20.953125 C 26.269531 -21.015625 25.460938 -21.109375 24.734375 -21.234375 C 23.992188 -21.597656 21.632812 -21.78125 17.65625 -21.78125 C 17.53125 -20.375 17.4375 -19.070312 17.375 -17.875 C 17.3125 -16.6875 17.28125 -15.597656 17.28125 -14.609375 C 17.28125 -12.585938 17.429688 -11.054688 17.734375 -10.015625 C 17.984375 -7.015625 18.179688 -4.75 18.328125 -3.21875 C 18.484375 -1.6875 18.59375 -0.582031 18.65625 0.09375 C 18.71875 0.769531 18.75 1.164062 18.75 1.28125 C 18.75 1.40625 18.75 1.5625 18.75 1.75 C 18.75 3.519531 17.523438 4.40625 15.078125 4.40625 C 14.210938 4.40625 13.457031 4.238281 12.8125 3.90625 C 12.175781 3.570312 11.644531 2.988281 11.21875 2.15625 C 10.789062 1.332031 10.453125 0.183594 10.203125 -1.28125 C 9.953125 -2.757812 9.800781 -4.597656 9.75 -6.796875 C 9.375 -8.328125 9.1875 -10.351562 9.1875 -12.875 C 9.1875 -13.664062 9.203125 -14.398438 9.234375 -15.078125 C 9.265625 -15.753906 9.28125 -16.335938 9.28125 -16.828125 C 9.28125 -17.316406 9.265625 -17.726562 9.234375 -18.0625 C 9.203125 -18.394531 9.1875 -18.6875 9.1875 -18.9375 C 9.1875 -18.8125 9.1875 -19.207031 9.1875 -20.125 C 9.1875 -21.050781 9.234375 -22.140625 9.328125 -23.390625 C 9.421875 -24.648438 9.523438 -25.90625 9.640625 -27.15625 C 9.765625 -28.414062 9.953125 -29.351562 10.203125 -29.96875 C 10.203125 -30.09375 10.1875 -30.226562 10.15625 -30.375 C 10.125 -30.53125 10.109375 -30.703125 10.109375 -30.890625 C 10.109375 -32.234375 10.171875 -33.425781 10.296875 -34.46875 C 10.421875 -35.507812 10.554688 -36.519531 10.703125 -37.5 C 10.859375 -38.476562 11.039062 -39.503906 11.25 -40.578125 C 11.46875 -41.648438 11.671875 -42.921875 11.859375 -44.390625 C 12.160156 -46.484375 12.523438 -48.019531 12.953125 -49 C 13.390625 -49.976562 14.375 -50.46875 15.90625 -50.46875 C 16.695312 -50.46875 17.535156 -50.191406 18.421875 -49.640625 C 19.316406 -49.085938 19.765625 -48.289062 19.765625 -47.25 C 19.765625 -46.695312 19.75 -45.972656 19.71875 -45.078125 C 19.6875 -44.191406 19.609375 -43.0625 19.484375 -41.6875 C 19.359375 -40.3125 19.203125 -38.640625 19.015625 -36.671875 C 18.835938 -34.710938 18.597656 -32.382812 18.296875 -29.6875 C 19.085938 -29.382812 20.191406 -29.234375 21.609375 -29.234375 C 22.097656 -29.234375 22.507812 -29.25 22.84375 -29.28125 C 23.175781 -29.3125 23.5 -29.328125 23.8125 -29.328125 C 24.664062 -29.328125 25.257812 -29.25 25.59375 -29.09375 C 25.9375 -28.9375 26.503906 -28.859375 27.296875 -28.859375 C 28.953125 -28.859375 30.207031 -28.90625 31.0625 -29 C 31.925781 -29.09375 32.359375 -29.109375 32.359375 -29.046875 L 33.734375 -29.046875 C 34.960938 -29.046875 36.113281 -29.09375 37.1875 -29.1875 C 38.257812 -29.28125 38.796875 -29.660156 38.796875 -30.328125 C 38.796875 -31.984375 38.519531 -34.253906 37.96875 -37.140625 L 37.96875 -38.796875 C 37.96875 -39.648438 37.9375 -40.488281 37.875 -41.3125 C 37.8125 -42.144531 37.6875 -42.898438 37.5 -43.578125 C 37.5 -46.023438 39.03125 -47.25 42.09375 -47.25 C 43.507812 -47.25 44.503906 -46.523438 45.078125 -45.078125 C 45.660156 -43.640625 46.0625 -41.941406 46.28125 -39.984375 C 46.5 -38.023438 46.625 -36.019531 46.65625 -33.96875 C 46.6875 -31.914062 46.882812 -30.273438 47.25 -29.046875 C 47.25 -27.453125 47.296875 -25.566406 47.390625 -23.390625 C 47.484375 -21.210938 47.648438 -18.6875 47.890625 -15.8125 C 47.828125 -15.5 47.796875 -15.128906 47.796875 -14.703125 C 47.796875 -14.273438 47.796875 -13.816406 47.796875 -13.328125 C 47.796875 -12.773438 47.796875 -12.175781 47.796875 -11.53125 C 47.796875 -10.894531 47.828125 -10.207031 47.890625 -9.46875 Z M 47.890625 -9.46875 "/></g></g></g><g fill="#000000" fill-opacity="1"><g transform="translate(286.951895, 97.874995)"><g><path d="M 29.78125 -2.296875 C 28.988281 -1.742188 27.703125 -1.207031 25.921875 -0.6875 C 24.140625 -0.164062 22.300781 0.273438 20.40625 0.640625 L 16.640625 -0.09375 C 16.085938 -0.28125 15.179688 -0.707031 13.921875 -1.375 C 12.671875 -2.050781 11.398438 -3.078125 10.109375 -4.453125 C 8.828125 -5.835938 7.691406 -7.613281 6.703125 -9.78125 C 5.722656 -11.957031 5.234375 -14.609375 5.234375 -17.734375 C 5.234375 -18.835938 5.492188 -20.140625 6.015625 -21.640625 C 6.535156 -23.148438 7.316406 -24.5625 8.359375 -25.875 C 9.398438 -27.195312 10.703125 -28.316406 12.265625 -29.234375 C 13.828125 -30.148438 15.648438 -30.609375 17.734375 -30.609375 C 21.898438 -30.609375 25.671875 -29.257812 29.046875 -26.5625 C 31.984375 -22.519531 33.453125 -18.046875 33.453125 -13.140625 C 33.453125 -9.523438 32.226562 -5.910156 29.78125 -2.296875 Z M 25.28125 -15.34375 C 24.96875 -17.738281 24.210938 -19.625 23.015625 -21 C 21.828125 -22.382812 20.3125 -23.078125 18.46875 -23.078125 C 17.25 -23.078125 16.101562 -22.476562 15.03125 -21.28125 C 13.957031 -20.082031 13.421875 -18.351562 13.421875 -16.09375 C 13.421875 -15.164062 13.539062 -14.195312 13.78125 -13.1875 C 14.03125 -12.175781 14.429688 -11.253906 14.984375 -10.421875 C 15.535156 -9.597656 16.238281 -8.925781 17.09375 -8.40625 C 17.957031 -7.882812 19 -7.625 20.21875 -7.625 C 22.1875 -7.625 23.535156 -8.222656 24.265625 -9.421875 C 25.003906 -10.617188 25.375 -12.101562 25.375 -13.875 C 25.375 -14.125 25.359375 -14.351562 25.328125 -14.5625 C 25.296875 -14.78125 25.28125 -15.039062 25.28125 -15.34375 Z M 25.28125 -15.34375 "/></g></g></g><g fill="#000000" fill-opacity="1"><g transform="translate(325.737991, 97.874995)"><g><path d="M 37.59375 -33 C 37.71875 -32.257812 37.78125 -31.519531 37.78125 -30.78125 C 37.78125 -30.050781 37.78125 -29.347656 37.78125 -28.671875 C 37.78125 -25.859375 37.472656 -23.316406 36.859375 -21.046875 C 36.617188 -19.515625 36.4375 -17.9375 36.3125 -16.3125 C 36.1875 -14.6875 36.0625 -12.988281 35.9375 -11.21875 C 35.9375 -11.09375 36.015625 -10.429688 36.171875 -9.234375 C 36.328125 -8.046875 36.40625 -6.285156 36.40625 -3.953125 C 36.40625 -2.910156 35.988281 -2.128906 35.15625 -1.609375 C 34.332031 -1.085938 33.367188 -0.828125 32.265625 -0.828125 C 30.921875 -0.828125 29.972656 -1.117188 29.421875 -1.703125 C 28.867188 -2.285156 28.53125 -3.679688 28.40625 -5.890625 C 27.363281 -4.898438 26.351562 -4.144531 25.375 -3.625 C 24.394531 -3.101562 23.457031 -2.71875 22.5625 -2.46875 C 21.675781 -2.226562 20.847656 -2.078125 20.078125 -2.015625 C 19.316406 -1.960938 18.597656 -1.9375 17.921875 -1.9375 C 14.429688 -1.9375 11.796875 -2.976562 10.015625 -5.0625 C 8.242188 -7.144531 7.359375 -10.023438 7.359375 -13.703125 C 7.359375 -14.128906 7.359375 -14.570312 7.359375 -15.03125 C 7.359375 -15.488281 7.390625 -16.023438 7.453125 -16.640625 C 7.390625 -16.765625 7.359375 -17.039062 7.359375 -17.46875 C 7.359375 -18.132812 7.375 -18.820312 7.40625 -19.53125 C 7.4375 -20.238281 7.539062 -21.113281 7.71875 -22.15625 C 7.90625 -23.195312 8.195312 -24.5 8.59375 -26.0625 C 8.988281 -27.625 9.554688 -29.628906 10.296875 -32.078125 C 11.085938 -33.054688 12.160156 -33.546875 13.515625 -33.546875 C 14.554688 -33.546875 15.457031 -33.269531 16.21875 -32.71875 C 16.988281 -32.164062 17.375 -31.3125 17.375 -30.15625 C 17.375 -29.84375 17.28125 -29.226562 17.09375 -28.3125 C 16.914062 -27.394531 16.703125 -26.382812 16.453125 -25.28125 C 16.210938 -24.175781 16 -23.070312 15.8125 -21.96875 C 15.625 -20.863281 15.53125 -20.003906 15.53125 -19.390625 L 15.53125 -18.9375 C 15.40625 -18.257812 15.3125 -17.597656 15.25 -16.953125 C 15.195312 -16.316406 15.171875 -15.722656 15.171875 -15.171875 C 15.171875 -13.578125 15.398438 -12.257812 15.859375 -11.21875 C 16.316406 -10.175781 17.3125 -9.65625 18.84375 -9.65625 C 19.945312 -9.65625 20.988281 -9.914062 21.96875 -10.4375 C 22.945312 -10.957031 23.847656 -11.597656 24.671875 -12.359375 C 25.503906 -13.128906 26.226562 -13.957031 26.84375 -14.84375 C 27.457031 -15.726562 27.914062 -16.570312 28.21875 -17.375 C 28.519531 -19.644531 29.070312 -22.617188 29.875 -26.296875 L 29.875 -27.203125 C 29.875 -28.242188 29.921875 -29.253906 30.015625 -30.234375 C 30.109375 -31.222656 30.289062 -32.097656 30.5625 -32.859375 C 30.84375 -33.628906 31.253906 -34.242188 31.796875 -34.703125 C 32.347656 -35.160156 33.117188 -35.390625 34.109375 -35.390625 C 35.941406 -35.390625 37.101562 -34.59375 37.59375 -33 Z M 37.59375 -33 "/></g></g></g><g fill="#000000" fill-opacity="1"><g transform="translate(370.682073, 97.874995)"><g><path d="M 31.15625 -31.25 C 32.132812 -30.632812 32.625 -29.472656 32.625 -27.765625 C 32.625 -26.472656 32.285156 -25.367188 31.609375 -24.453125 C 30.941406 -23.535156 30.023438 -23.078125 28.859375 -23.078125 C 28.128906 -23.078125 27.378906 -23.273438 26.609375 -23.671875 C 25.847656 -24.066406 25.035156 -24.265625 24.171875 -24.265625 C 23.441406 -24.265625 22.722656 -24.125 22.015625 -23.84375 C 21.304688 -23.570312 20.492188 -22.976562 19.578125 -22.0625 L 16.828125 -19.296875 C 16.828125 -18.867188 16.835938 -18.441406 16.859375 -18.015625 C 16.890625 -17.585938 16.90625 -17.128906 16.90625 -16.640625 C 16.90625 -15.898438 16.890625 -15.128906 16.859375 -14.328125 C 16.835938 -13.535156 16.796875 -12.679688 16.734375 -11.765625 L 17.5625 -3.40625 C 17.375 -0.582031 15.929688 0.828125 13.234375 0.828125 C 11.828125 0.828125 10.785156 0.382812 10.109375 -0.5 C 9.429688 -1.394531 8.96875 -2.640625 8.71875 -4.234375 C 8.476562 -5.828125 8.375 -7.691406 8.40625 -9.828125 C 8.4375 -11.972656 8.421875 -14.332031 8.359375 -16.90625 C 8.242188 -20.769531 8.15625 -22.703125 8.09375 -22.703125 L 8.09375 -22.609375 C 7.84375 -23.523438 7.65625 -24.335938 7.53125 -25.046875 C 7.414062 -25.753906 7.359375 -26.382812 7.359375 -26.9375 C 7.359375 -28.039062 7.753906 -28.941406 8.546875 -29.640625 C 9.347656 -30.347656 10.515625 -30.703125 12.046875 -30.703125 C 13.023438 -30.703125 14.1875 -29.9375 15.53125 -28.40625 C 16.945312 -29.507812 18.035156 -30.335938 18.796875 -30.890625 C 19.566406 -31.441406 20.210938 -31.835938 20.734375 -32.078125 C 21.253906 -32.328125 21.757812 -32.46875 22.25 -32.5 C 22.738281 -32.53125 23.378906 -32.546875 24.171875 -32.546875 C 24.847656 -32.597656 25.476562 -32.5625 26.0625 -32.4375 C 26.644531 -32.320312 27.269531 -32.203125 27.9375 -32.078125 Z M 31.15625 -31.25 "/></g></g></g><g fill="#000000" fill-opacity="1"><g transform="translate(405.791766, 97.874995)"><g><path d="M 30.703125 -10.578125 C 30.515625 -8.671875 29.882812 -6.9375 28.8125 -5.375 C 27.738281 -3.8125 26.648438 -2.234375 25.546875 -0.640625 C 24.878906 -0.0859375 23.914062 0.382812 22.65625 0.78125 C 21.40625 1.175781 20.164062 1.492188 18.9375 1.734375 C 17.707031 1.984375 16.648438 2.171875 15.765625 2.296875 C 14.878906 2.421875 14.492188 2.484375 14.609375 2.484375 C 14.003906 2.484375 13.222656 2.375 12.265625 2.15625 C 11.316406 1.945312 10.398438 1.734375 9.515625 1.515625 C 8.628906 1.296875 7.894531 1.078125 7.3125 0.859375 C 6.726562 0.648438 6.46875 0.546875 6.53125 0.546875 C 5.976562 0.484375 5.269531 0.285156 4.40625 -0.046875 C 3.550781 -0.378906 2.738281 -0.773438 1.96875 -1.234375 C 1.207031 -1.703125 0.535156 -2.195312 -0.046875 -2.71875 C -0.628906 -3.238281 -0.921875 -3.742188 -0.921875 -4.234375 C -0.921875 -4.722656 -0.796875 -5.226562 -0.546875 -5.75 C -0.304688 -6.269531 0.0234375 -6.757812 0.453125 -7.21875 C 0.890625 -7.675781 1.335938 -8.039062 1.796875 -8.3125 C 2.253906 -8.59375 2.726562 -8.734375 3.21875 -8.734375 L 9.5625 -6.34375 C 10.726562 -5.976562 11.875 -5.71875 13 -5.5625 C 14.132812 -5.40625 15.253906 -5.328125 16.359375 -5.328125 C 17.398438 -5.328125 18.332031 -5.523438 19.15625 -5.921875 C 19.988281 -6.328125 20.617188 -6.804688 21.046875 -7.359375 L 22.421875 -10.109375 C 22.304688 -11.210938 21.863281 -12.070312 21.09375 -12.6875 C 20.332031 -13.300781 19.382812 -13.820312 18.25 -14.25 C 17.113281 -14.675781 15.898438 -15.070312 14.609375 -15.4375 C 13.328125 -15.8125 12.132812 -16.300781 11.03125 -16.90625 L 7.078125 -19.390625 C 5.785156 -21.046875 5.113281 -23.59375 5.0625 -27.03125 C 5.425781 -29.175781 6.34375 -30.890625 7.8125 -32.171875 C 7.875 -32.234375 8.269531 -32.523438 9 -33.046875 C 9.738281 -33.566406 10.875 -34.316406 12.40625 -35.296875 C 12.65625 -35.296875 13.4375 -35.359375 14.75 -35.484375 C 16.070312 -35.609375 17.894531 -35.789062 20.21875 -36.03125 C 21.257812 -36.03125 23.804688 -35.296875 27.859375 -33.828125 C 28.648438 -33.023438 29.046875 -31.921875 29.046875 -30.515625 C 29.046875 -29.410156 28.785156 -28.472656 28.265625 -27.703125 C 27.742188 -26.941406 26.992188 -26.5625 26.015625 -26.5625 C 24.972656 -26.5625 23.820312 -26.820312 22.5625 -27.34375 C 21.3125 -27.863281 20.132812 -28.125 19.03125 -28.125 C 17.5 -28.125 16.101562 -27.984375 14.84375 -27.703125 C 13.59375 -27.429688 12.96875 -26.804688 12.96875 -25.828125 C 12.96875 -24.421875 13.578125 -23.5625 14.796875 -23.25 C 24.171875 -21.164062 29.472656 -16.941406 30.703125 -10.578125 Z M 30.703125 -10.578125 "/></g></g></g><path fill="#000000" d="M 196.992188 51.988281 C 198.492188 52.476562 201.246094 53.019531 201.605469 53.09375 C 206.972656 54.171875 210.804688 58.160156 213.128906 62.695312 C 215.441406 67.199219 216.25 72.230469 215.679688 75.371094 C 213.917969 85.125 210.199219 91.042969 205.742188 94.394531 C 200.484375 98.347656 194.15625 98.765625 188.566406 97.570312 C 183.007812 96.382812 178.195312 93.59375 175.921875 91.210938 C 170.675781 85.710938 168.765625 81.679688 168.164062 78.671875 C 167.5625 75.65625 168.277344 73.644531 168.382812 72.152344 C 168.894531 64.953125 171.257812 60.097656 174.394531 56.863281 C 181.753906 49.273438 193.511719 50.582031 196.625 51.722656 C 196.773438 51.777344 196.898438 51.871094 196.992188 51.988281 Z M 195.367188 53.074219 C 191.738281 52.113281 181.902344 51.507812 175.582031 58.027344 C 172.664062 61.039062 170.515625 65.574219 170.039062 72.269531 C 169.941406 73.664062 169.230469 75.535156 169.792969 78.34375 C 170.355469 81.164062 172.203125 84.902344 177.121094 90.058594 C 179.234375 92.277344 183.734375 94.832031 188.914062 95.941406 C 194.0625 97.039062 199.902344 96.703125 204.75 93.058594 C 208.953125 89.894531 212.382812 84.273438 214.046875 75.074219 C 214.570312 72.191406 213.773438 67.589844 211.65625 63.460938 C 209.550781 59.359375 206.128906 55.703125 201.28125 54.726562 C 200.816406 54.632812 196.722656 53.792969 195.5625 53.210938 C 195.488281 53.175781 195.425781 53.128906 195.367188 53.074219 Z M 195.367188 53.074219 " fill-opacity="1" fill-rule="evenodd"/><g clip-path="url(#0e49b9f67e)"><path fill="#000000" d="M 189.667969 46.023438 C 189.796875 45.90625 189.964844 45.832031 190.152344 45.820312 C 206.171875 44.667969 213.824219 54.261719 214.496094 54.992188 C 222.441406 63.640625 221.847656 73.8125 220.058594 80.6875 C 218.996094 84.757812 217.519531 87.660156 217.203125 88.351562 C 217.195312 88.363281 217.191406 88.378906 217.183594 88.390625 C 215.503906 95.851562 208.945312 100.878906 200.886719 102.703125 C 188.9375 105.40625 173.75 101.046875 166.945312 87.367188 C 164.054688 81.5625 162.703125 78.472656 162.597656 75.3125 C 162.496094 72.164062 163.636719 68.925781 165.867188 62.816406 C 171.585938 47.140625 183.933594 45.691406 189.101562 45.980469 C 189.300781 45.992188 189.488281 46.007812 189.667969 46.023438 Z M 192.085938 47.398438 C 192.070312 47.453125 192.046875 47.507812 192.019531 47.5625 C 191.796875 47.964844 191.292969 48.109375 190.890625 47.886719 C 190.898438 47.890625 190.917969 47.902344 190.917969 47.902344 C 190.917969 47.902344 188.972656 47.539062 186.929688 47.644531 C 181.433594 47.929688 172.085938 50.613281 167.421875 63.390625 C 165.304688 69.199219 164.160156 72.261719 164.257812 75.257812 C 164.355469 78.242188 165.699219 81.136719 168.429688 86.621094 C 174.859375 99.546875 189.230469 103.632812 200.523438 101.074219 C 207.941406 99.398438 214.058594 94.847656 215.578125 87.96875 C 215.625 87.757812 217.289062 84.722656 218.453125 80.265625 C 220.132812 73.808594 220.738281 64.246094 213.277344 56.125 C 212.667969 55.460938 205.984375 47.121094 192.085938 47.398438 Z M 192.085938 47.398438 " fill-opacity="1" fill-rule="evenodd"/></g><path fill="#000000" d="M 191.503906 72.046875 C 191.828125 71.820312 192.277344 71.851562 192.566406 72.140625 C 193.828125 73.410156 194.070312 74.378906 193.960938 75.023438 C 193.832031 75.769531 193.253906 76.292969 192.515625 76.578125 C 191.867188 76.832031 191.117188 76.898438 190.8125 76.902344 L 190.421875 76.851562 C 189.535156 76.554688 189.074219 76.054688 188.851562 75.53125 C 188.632812 75.015625 188.648438 74.441406 188.835938 73.902344 C 189.085938 73.199219 189.636719 72.5625 190.195312 72.246094 C 190.648438 71.988281 191.117188 71.929688 191.503906 72.046875 Z M 191.96875 73.96875 C 191.625 74.121094 191.230469 74.015625 191 73.734375 C 190.867188 73.828125 190.652344 74 190.546875 74.164062 C 190.402344 74.390625 190.273438 74.65625 190.386719 74.894531 C 190.453125 75.039062 190.605469 75.140625 190.832031 75.230469 C 191.007812 75.21875 191.484375 75.175781 191.847656 75.050781 C 192.089844 74.964844 192.394531 74.878906 192.300781 74.566406 C 192.246094 74.390625 192.136719 74.191406 191.96875 73.96875 Z M 191.96875 73.96875 " fill-opacity="1" fill-rule="evenodd"/><path fill="#000000" d="M 189.496094 73.488281 C 189.9375 73.609375 190.199219 74.066406 190.082031 74.511719 C 189.960938 74.957031 189.503906 75.21875 189.0625 75.097656 C 188.683594 74.996094 180.539062 70.917969 179.800781 70.550781 C 179.390625 70.34375 179.222656 69.84375 179.429688 69.429688 C 179.632812 69.019531 180.132812 68.851562 180.542969 69.058594 C 181.257812 69.417969 189.128906 73.390625 189.496094 73.488281 Z M 189.496094 73.488281 " fill-opacity="1" fill-rule="evenodd"/><path fill="#000000" d="M 204.535156 62.664062 C 204.484375 62.714844 204.160156 63.035156 203.785156 63.421875 C 201.816406 65.457031 196.914062 70.664062 194.671875 73.085938 C 194.109375 73.691406 193.644531 74.207031 193.578125 74.28125 C 193.363281 74.574219 192.972656 74.703125 192.617188 74.570312 C 192.1875 74.40625 191.972656 73.925781 192.132812 73.496094 L 192.28125 73.242188 C 192.367188 73.132812 192.804688 72.652344 193.457031 71.949219 C 195.988281 69.214844 201.898438 62.945312 203.195312 61.644531 C 203.449219 61.390625 203.628906 61.273438 203.660156 61.253906 C 204.070312 61.050781 204.570312 61.214844 204.773438 61.628906 C 204.957031 61.992188 204.847656 62.425781 204.535156 62.664062 Z M 204.535156 62.664062 " fill-opacity="1" fill-rule="evenodd"/><path fill="#000000" d="M 191.046875 54.652344 C 191.042969 54.191406 191.410156 53.8125 191.867188 53.808594 C 192.324219 53.800781 192.703125 54.171875 192.707031 54.632812 L 192.730469 56.300781 C 192.734375 56.761719 192.367188 57.136719 191.910156 57.144531 C 191.453125 57.148438 191.074219 56.78125 191.070312 56.320312 Z M 191.046875 54.652344 " fill-opacity="1" fill-rule="evenodd"/><path fill="#000000" d="M 210.648438 73.347656 C 210.191406 73.375 209.796875 73.023438 209.769531 72.5625 C 209.742188 72.101562 210.09375 71.707031 210.550781 71.679688 C 211.355469 71.632812 211.308594 71.554688 212.101562 71.289062 C 212.535156 71.144531 213.007812 71.378906 213.152344 71.816406 C 213.296875 72.253906 213.0625 72.726562 212.625 72.871094 C 211.617188 73.207031 211.675781 73.285156 210.648438 73.347656 Z M 210.648438 73.347656 " fill-opacity="1" fill-rule="evenodd"/><path fill="#000000" d="M 192.78125 91.65625 C 192.832031 91.199219 193.242188 90.867188 193.699219 90.917969 C 194.152344 90.96875 194.480469 91.382812 194.429688 91.839844 C 194.367188 92.429688 194.453125 92.648438 194.484375 92.933594 C 194.515625 93.21875 194.523438 93.542969 194.410156 94.109375 C 194.320312 94.558594 193.882812 94.851562 193.433594 94.761719 C 192.984375 94.671875 192.695312 94.230469 192.785156 93.78125 C 192.886719 93.273438 192.828125 93.082031 192.789062 92.820312 C 192.75 92.546875 192.71875 92.21875 192.78125 91.65625 Z M 192.78125 91.65625 " fill-opacity="1" fill-rule="evenodd"/><path fill="#000000" d="M 172.417969 72.667969 C 172.835938 72.613281 173.230469 72.558594 173.257812 72.554688 C 173.34375 72.542969 173.84375 72.480469 174.3125 72.714844 C 174.722656 72.921875 174.890625 73.421875 174.683594 73.832031 C 174.480469 74.246094 173.980469 74.414062 173.570312 74.207031 C 173.535156 74.191406 173.5 74.203125 173.492188 74.207031 C 173.429688 74.214844 171.667969 74.464844 171.46875 74.472656 L 171.113281 74.417969 L 170.871094 74.273438 L 170.734375 74.125 L 170.652344 73.972656 L 170.582031 73.65625 L 170.617188 73.398438 L 170.742188 73.148438 L 170.886719 72.996094 L 171.113281 72.859375 C 171.152344 72.847656 171.433594 72.777344 172.121094 72.664062 C 172.222656 72.648438 172.324219 72.648438 172.417969 72.667969 Z M 172.417969 72.667969 " fill-opacity="1" fill-rule="evenodd"/><path fill="#000000" d="M 169.242188 87.933594 C 169.457031 87.921875 170.683594 87.855469 171.34375 87.636719 C 171.78125 87.488281 172.25 87.726562 172.394531 88.164062 C 172.539062 88.597656 172.304688 89.070312 171.871094 89.21875 C 170.988281 89.511719 169.664062 89.632812 169.117188 89.597656 C 168.984375 89.589844 168.875 89.570312 168.800781 89.550781 L 168.582031 89.464844 L 168.410156 89.339844 L 168.269531 89.183594 C 168.011719 88.800781 168.113281 88.28125 168.492188 88.023438 C 168.722656 87.867188 169 87.84375 169.242188 87.933594 Z M 169.242188 87.933594 " fill-opacity="1" fill-rule="evenodd"/><path fill="#000000" d="M 171.445312 93.082031 C 171 93.195312 170.546875 92.921875 170.4375 92.476562 C 170.324219 92.03125 170.59375 91.578125 171.039062 91.464844 C 171.316406 91.394531 172.140625 91.183594 174.574219 90.777344 C 175.027344 90.699219 175.457031 91.007812 175.53125 91.460938 C 175.605469 91.914062 175.300781 92.347656 174.847656 92.421875 C 172.503906 92.8125 171.710938 93.015625 171.445312 93.082031 Z M 171.445312 93.082031 " fill-opacity="1" fill-rule="evenodd"/><path fill="#000000" d="M 174.433594 96.128906 C 173.976562 96.152344 173.589844 95.792969 173.570312 95.335938 C 173.546875 94.875 173.902344 94.484375 174.359375 94.464844 C 176.214844 94.382812 176.199219 94.453125 177.984375 93.871094 C 178.417969 93.730469 178.886719 93.972656 179.027344 94.410156 C 179.167969 94.847656 178.929688 95.320312 178.492188 95.460938 C 176.492188 96.109375 176.511719 96.039062 174.433594 96.128906 Z M 174.433594 96.128906 " fill-opacity="1" fill-rule="evenodd"/><path fill="#000000" d="M 178.660156 98.914062 C 178.648438 98.921875 178.636719 98.933594 178.625 98.945312 C 178.269531 99.230469 177.746094 99.175781 177.457031 98.816406 L 177.28125 98.503906 L 177.230469 98.285156 L 177.234375 98.089844 L 177.328125 97.800781 L 177.570312 97.515625 L 177.8125 97.382812 C 177.878906 97.355469 177.976562 97.328125 178.121094 97.304688 C 178.53125 97.230469 179.65625 97.105469 182.289062 96.398438 C 182.730469 96.28125 183.183594 96.546875 183.304688 96.988281 C 183.421875 97.433594 183.15625 97.890625 182.714844 98.011719 C 180.558594 98.589844 179.21875 98.828125 178.660156 98.914062 Z M 178.765625 97.785156 C 178.761719 97.78125 178.757812 97.777344 178.753906 97.773438 C 178.757812 97.777344 178.761719 97.78125 178.765625 97.785156 Z M 178.765625 97.785156 " fill-opacity="1" fill-rule="evenodd"/><path fill="#000000" d="M 183.242188 101.199219 C 183.027344 101.382812 182.726562 101.453125 182.441406 101.359375 C 182.007812 101.214844 181.769531 100.742188 181.914062 100.308594 L 182.105469 99.984375 L 182.425781 99.75 C 183.117188 99.363281 186.398438 98.039062 186.71875 97.910156 C 187.144531 97.742188 187.628906 97.949219 187.796875 98.375 C 187.96875 98.804688 187.761719 99.289062 187.335938 99.460938 C 187.027344 99.582031 183.929688 100.824219 183.242188 101.199219 Z M 183.242188 101.199219 " fill-opacity="1" fill-rule="evenodd"/><path fill="#000000" d="M 208.339844 52.054688 C 208.046875 52.332031 206.738281 53.515625 205.351562 53.863281 C 204.90625 53.976562 204.457031 53.703125 204.347656 53.257812 C 204.234375 52.8125 204.503906 52.359375 204.949219 52.246094 C 206.132812 51.949219 207.140625 50.898438 207.230469 50.8125 L 207.324219 50.730469 L 207.574219 50.601562 L 207.917969 50.570312 L 208.210938 50.660156 L 208.410156 50.8125 L 208.554688 51.011719 L 208.644531 51.289062 L 208.613281 51.648438 L 208.496094 51.878906 L 208.421875 51.972656 C 208.398438 52 208.367188 52.027344 208.339844 52.054688 Z M 206.988281 51.277344 C 207.011719 51.125 207.078125 50.980469 207.191406 50.855469 C 207.058594 51.003906 207 51.144531 206.988281 51.277344 Z M 206.988281 51.277344 " fill-opacity="1" fill-rule="evenodd"/><path fill="#000000" d="M 210.589844 52.34375 C 210.921875 52.613281 211 53.101562 210.757812 53.460938 C 210.636719 53.640625 210.460938 53.757812 210.265625 53.804688 C 210.109375 53.902344 209.464844 54.316406 208.195312 55.304688 C 207.835938 55.589844 207.3125 55.523438 207.03125 55.160156 C 206.75 54.796875 206.816406 54.273438 207.179688 53.988281 C 208.902344 52.644531 209.476562 52.324219 209.664062 52.246094 L 209.882812 52.175781 L 210.128906 52.160156 L 210.347656 52.207031 Z M 209.765625 53.769531 C 209.710938 53.75 209.65625 53.722656 209.605469 53.6875 L 209.546875 53.644531 C 209.585938 53.675781 209.648438 53.726562 209.765625 53.769531 Z M 209.765625 53.769531 " fill-opacity="1" fill-rule="evenodd"/><path fill="#000000" d="M 212.738281 54.84375 C 213.15625 54.65625 213.648438 54.84375 213.835938 55.261719 C 214.023438 55.683594 213.835938 56.175781 213.414062 56.363281 C 211.175781 57.371094 211.21875 57.382812 210.550781 57.605469 C 210.113281 57.75 209.644531 57.515625 209.5 57.078125 C 209.355469 56.640625 209.589844 56.167969 210.023438 56.023438 C 210.660156 55.8125 210.613281 55.796875 212.738281 54.84375 Z M 212.738281 54.84375 " fill-opacity="1" fill-rule="evenodd"/><path fill="#000000" d="M 215.089844 57.699219 C 215.527344 57.570312 215.988281 57.824219 216.117188 58.265625 C 216.246094 58.707031 215.992188 59.171875 215.550781 59.300781 C 215.332031 59.363281 215.382812 59.421875 213.003906 60.617188 C 212.59375 60.824219 212.097656 60.65625 211.890625 60.246094 C 211.6875 59.832031 211.851562 59.332031 212.261719 59.128906 C 214.890625 57.808594 214.847656 57.769531 215.089844 57.699219 Z M 215.089844 57.699219 " fill-opacity="1" fill-rule="evenodd"/><path fill="#000000" d="M 216.632812 61.515625 C 216.714844 61.207031 216.96875 60.957031 217.304688 60.90625 C 217.757812 60.832031 218.179688 61.144531 218.253906 61.597656 L 218.25 61.949219 L 218.160156 62.234375 L 218.007812 62.480469 C 217.945312 62.566406 217.859375 62.660156 217.761719 62.75 C 217.0625 63.382812 215.175781 64.136719 214.960938 64.21875 C 214.53125 64.382812 214.050781 64.167969 213.886719 63.742188 C 213.722656 63.3125 213.9375 62.828125 214.363281 62.664062 C 214.488281 62.613281 215.269531 62.3125 215.949219 61.957031 C 216.191406 61.828125 216.507812 61.605469 216.632812 61.515625 Z M 216.609375 61.828125 C 216.609375 61.835938 216.613281 61.847656 216.613281 61.859375 C 216.613281 61.847656 216.609375 61.835938 216.609375 61.828125 Z M 216.609375 61.828125 " fill-opacity="1" fill-rule="evenodd"/><path fill="#000000" d="M 218.285156 65.214844 C 218.679688 64.980469 219.1875 65.109375 219.425781 65.503906 C 219.660156 65.898438 219.53125 66.410156 219.136719 66.648438 C 218.53125 67.011719 216.679688 67.859375 216.464844 67.960938 C 216.046875 68.148438 215.554688 67.964844 215.367188 67.546875 C 215.175781 67.125 215.359375 66.632812 215.777344 66.441406 C 215.980469 66.347656 217.714844 65.558594 218.285156 65.214844 Z M 218.285156 65.214844 " fill-opacity="1" fill-rule="evenodd"/></svg>